<mxfile host="app.diagrams.net" modified="2023-06-30T02:09:33.962Z" agent="Mozilla/5.0 (Windows NT 10.0; Win64; x64) AppleWebKit/537.36 (KHTML, like Gecko) Chrome/113.0.0.0 Safari/537.36" version="21.3.2" etag="vNsTS9t1UqT9CAAs2EsU" type="github">
  <diagram name="第 1 页" id="7TJpn7eji6zIz-jd9TIv">
    <mxGraphModel>
      <root>
        <mxCell id="0" />
        <mxCell id="1" parent="0" />
      </root>
    </mxGraphModel>
  </diagram>
</mxfile>
